<svg width="24" height="24" viewBox="0 0 24 24" fill="none" xmlns="http://www.w3.org/2000/svg">
<path fill-rule="evenodd" clip-rule="evenodd" d="M9.38413 2.88831C10.6373 1.89042 12.4227 1.89042 13.6759 2.88831L19.8628 7.81585C20.5319 8.33125 20.945 9.1264 20.945 9.97989V18.1799C20.945 20.226 19.2685 21.8849 17.21 21.8849H15.4L15.3849 21.8847C14.5046 21.8567 13.795 21.1423 13.795 20.2599V17.3699C13.795 16.9091 13.4046 16.5149 12.92 16.5149H10.21C9.73004 16.5149 9.34502 16.9045 9.34502 17.3699V20.2499C9.34502 20.2884 9.34044 20.3258 9.33181 20.3616C9.27784 21.2141 8.55041 21.8849 7.69002 21.8849H5.88002C3.8215 21.8849 2.14502 20.226 2.14502 18.1799V9.98989C2.14502 9.13667 2.55791 8.34175 3.22658 7.82634L9.38285 2.88933L9.38413 2.88831ZM8.39502 20.1625V17.3699C8.39502 16.3752 9.21 15.5649 10.21 15.5649H12.92C13.9154 15.5649 14.745 16.3707 14.745 17.3699V20.2599C14.745 20.6154 15.0321 20.9195 15.4085 20.9349H17.21C18.7515 20.9349 19.995 19.6938 19.995 18.1799V9.97989C19.995 9.43488 19.7296 8.91132 19.2807 8.56664L19.274 8.56151L13.0841 3.63148C13.0841 3.63147 13.0841 3.63148 13.0841 3.63148C12.1775 2.90955 10.8833 2.90937 9.97651 3.631C9.97631 3.63116 9.97671 3.63084 9.97651 3.631L3.80937 8.57672C3.36048 8.92141 3.09502 9.44488 3.09502 9.98989V18.1799C3.09502 19.6938 4.33854 20.9349 5.88002 20.9349H7.69002C8.07569 20.9349 8.38502 20.6196 8.38502 20.2599C8.38502 20.2265 8.38846 20.1939 8.39502 20.1625Z" fill="#989BA2"/>
</svg>
